<?xml version="1.0" encoding="UTF-8" standalone="no" ?>
<!DOCTYPE svg PUBLIC "-//W3C//DTD SVG 1.1//EN" "http://www.w3.org/Graphics/SVG/1.1/DTD/svg11.dtd">
<svg xmlns="http://www.w3.org/2000/svg" xmlns:xlink="http://www.w3.org/1999/xlink" version="1.1" width="128" height="128" viewBox="0 0 128 128" xml:space="preserve">
<desc>Created with Fabric.js 5.2.4</desc>
<defs>
</defs>
<g transform="matrix(0 0 0 0 0 0)" id="fd43c14b-59d6-4b21-8a29-8260310fe5c8"  >
</g>
<g transform="matrix(1 0 0 1 64 64)" id="8e5255d2-76ad-4926-8bf4-4493b5c593cd"  >
<rect style="stroke: none; stroke-width: 1; stroke-dasharray: none; stroke-linecap: butt; stroke-dashoffset: 0; stroke-linejoin: miter; stroke-miterlimit: 4; fill: rgb(255,255,255); fill-rule: nonzero; opacity: 1; visibility: hidden;" vector-effect="non-scaling-stroke"  x="-64" y="-64" rx="0" ry="0" width="128" height="128" />
</g>
<g transform="matrix(0.07 0 0 0.07 32.89 64)"  >
<g style="" vector-effect="non-scaling-stroke"   >
		<g transform="matrix(14.33 0 0 14.33 -0.04 -0.04)"  >
<path style="stroke: none; stroke-width: 1; stroke-dasharray: none; stroke-linecap: butt; stroke-dashoffset: 0; stroke-linejoin: miter; stroke-miterlimit: 4; fill: rgb(255,241,198); fill-rule: nonzero; opacity: 1;" vector-effect="non-scaling-stroke"  transform=" translate(-27.91, -27.91)" d="M 55.729 18.653 C 51.876 -0.621 22.861 1.658 9.95 3.689 C 7.804 4.027 6.181 5.8 6.023 7.967 L 4.481 27.674 C 2.968 28.538999999999998 -1.1029999999999998 31.378999999999998 0.2829999999999995 36.275999999999996 C 0.7289999999999994 37.849999999999994 1.3609999999999995 38.57599999999999 2.0659999999999994 38.75299999999999 C 2.8599999999999994 38.95199999999999 3.4369999999999994 39.614999999999995 3.3099999999999996 40.42399999999999 C 2.9079999999999995 42.97399999999999 2.279 47.343999999999994 2.231 49.998999999999995 C 2.1599999999999997 53.92399999999999 6.798 53.42399999999999 6.798 53.42399999999999 C 6.798 53.42399999999999 13.235 52.995999999999995 9.525 47.71499999999999 C 7.476000000000001 44.79899999999999 7.654 42.66899999999999 11.062000000000001 41.34299999999999 L 25.735 35.24199999999999 C 25.535 36.68499999999999 25.701 39.82199999999999 28.378 40.00299999999999 C 30.225 40.12799999999999 33.373 39.336999999999996 32.115 33.776999999999994 C 32.024 33.37599999999999 32.027 32.967999999999996 32.122 32.58599999999999 L 52.942 23.929999999999993 C 55.013 23.069 56.169 20.854 55.729 18.653 z" stroke-linecap="round" />
</g>
		<g transform="matrix(14.33 0 0 14.33 55.54 84.41)"  >
<path style="stroke: none; stroke-width: 1; stroke-dasharray: none; stroke-linecap: butt; stroke-dashoffset: 0; stroke-linejoin: miter; stroke-miterlimit: 4; fill: rgb(224,171,54); fill-rule: nonzero; opacity: 1;" vector-effect="non-scaling-stroke"  transform=" translate(-31.79, -33.8)" d="M 8.96 45.647 C 8.782 45.719 8.651000000000002 45.846 8.545000000000002 45.991 C 7.6960000000000015 43.946 8.365000000000002 42.391999999999996 11.060000000000002 41.344 L 25.733000000000004 35.243 C 25.613000000000003 36.105000000000004 25.629000000000005 37.568000000000005 26.227000000000004 38.647000000000006 L 8.96 45.647 z M 54.734 25.294 C 53.592 27.666 51.279 28.493000000000002 51.205 28.521 L 32.393 36.148 C 32.4 35.473000000000006 32.322 34.696000000000005 32.114 33.778000000000006 C 32.022999999999996 33.377 32.025999999999996 32.96900000000001 32.120999999999995 32.58800000000001 L 52.940999999999995 23.93200000000001 C 54.041999999999994 23.47400000000001 54.873 22.62900000000001 55.355 21.61200000000001 C 55.45 22.986 55.251 24.222 54.734 25.294 z" stroke-linecap="round" />
</g>
		<g transform="matrix(14.33 0 0 14.33 43.26 -211.31)"  >
<path style="stroke: none; stroke-width: 1; stroke-dasharray: none; stroke-linecap: butt; stroke-dashoffset: 0; stroke-linejoin: miter; stroke-miterlimit: 4; fill: rgb(244,196,78); fill-rule: nonzero; opacity: 1;" vector-effect="non-scaling-stroke"  transform=" translate(-30.93, -13.17)" d="M 55.729 18.703 C 51.876 -0.572 22.861 1.707 9.95 3.738 C 7.846 4.069 6.254 5.783 6.043 7.892 C 40.176 2.1240000000000006 49.049 10.426 53.547 20.26 C 54.193 21.672 53.800999999999995 22.928 53.077999999999996 23.908 C 55.06 23.006 56.158 20.852 55.729 18.703 z" stroke-linecap="round" />
</g>
		<g transform="matrix(14.33 0 0 14.33 -213.7 -327.07)"  >
<path style="stroke: none; stroke-width: 1; stroke-dasharray: none; stroke-linecap: butt; stroke-dashoffset: 0; stroke-linejoin: miter; stroke-miterlimit: 4; fill: rgb(224,171,54); fill-rule: nonzero; opacity: 1;" vector-effect="non-scaling-stroke"  transform=" translate(-13, -5.09)" d="M 12 3.542 L 12 6.994 C 12.682 6.904 13.341 6.827 14 6.75 L 14 3.542 C 14 3.415 13.971 3.296 13.928 3.1839999999999997 C 13.266 3.264 12.636000000000001 3.3489999999999998 12.022 3.4339999999999997 C 12.018 3.471 12 3.503 12 3.542 z" stroke-linecap="round" />
</g>
		<g transform="matrix(14.33 0 0 14.33 -99.04 -337.65)"  >
<path style="stroke: none; stroke-width: 1; stroke-dasharray: none; stroke-linecap: butt; stroke-dashoffset: 0; stroke-linejoin: miter; stroke-miterlimit: 4; fill: rgb(224,171,54); fill-rule: nonzero; opacity: 1;" vector-effect="non-scaling-stroke"  transform=" translate(-21, -4.35)" d="M 20 2.798 L 20 6.191 C 20.683 6.146 21.345 6.1129999999999995 22 6.084 L 22 2.798 C 22 2.696 21.97 2.604 21.942 2.512 C 21.298000000000002 2.54 20.664 2.576 20.036 2.616 C 20.025 2.678 20 2.734 20 2.798 z" stroke-linecap="round" />
</g>
		<g transform="matrix(14.33 0 0 14.33 1.28 -339.01)"  >
<path style="stroke: none; stroke-width: 1; stroke-dasharray: none; stroke-linecap: butt; stroke-dashoffset: 0; stroke-linejoin: miter; stroke-miterlimit: 4; fill: rgb(224,171,54); fill-rule: nonzero; opacity: 1;" vector-effect="non-scaling-stroke"  transform=" translate(-28, -4.26)" d="M 27 2.798 L 27 6.006 C 27.685 6.018 28.35 6.041 29 6.073 L 29 2.798 C 29 2.69 28.97 2.59 28.938 2.493 C 28.314999999999998 2.467 27.692 2.4499999999999997 27.072 2.439 C 27.029 2.551 27 2.671 27 2.798 z" stroke-linecap="round" />
</g>
		<g transform="matrix(14.33 0 0 14.33 109.49 -328.65)"  >
<path style="stroke: none; stroke-width: 1; stroke-dasharray: none; stroke-linecap: butt; stroke-dashoffset: 0; stroke-linejoin: miter; stroke-miterlimit: 4; fill: rgb(224,171,54); fill-rule: nonzero; opacity: 1;" vector-effect="non-scaling-stroke"  transform=" translate(-35.55, -4.98)" d="M 35.204 3.075 C 35.197 3.093 35.182 3.105 35.176 3.123 L 33.983000000000004 6.546 C 34.673 6.646 35.341 6.758 35.983000000000004 6.884 L 37.065000000000005 3.781 C 37.109 3.654 37.124 3.524 37.117000000000004 3.398 C 36.484 3.278 35.847 3.17 35.204 3.075 z" stroke-linecap="round" />
</g>
		<g transform="matrix(14.33 0 0 14.33 210.52 -300.98)"  >
<path style="stroke: none; stroke-width: 1; stroke-dasharray: none; stroke-linecap: butt; stroke-dashoffset: 0; stroke-linejoin: miter; stroke-miterlimit: 4; fill: rgb(224,171,54); fill-rule: nonzero; opacity: 1;" vector-effect="non-scaling-stroke"  transform=" translate(-42.6, -6.91)" d="M 42.363 4.764 C 42.324 4.825 42.275999999999996 4.878 42.25 4.949 L 41.043 8.279 C 41.691 8.521 42.302 8.782 42.888 9.055 L 44.129 5.631 C 44.152 5.5680000000000005 44.147999999999996 5.5040000000000004 44.158 5.441 C 43.573 5.197 42.973 4.973 42.363 4.764 z" stroke-linecap="round" />
</g>
		<g transform="matrix(14.33 0 0 14.33 305.77 -243.48)"  >
<path style="stroke: none; stroke-width: 1; stroke-dasharray: none; stroke-linecap: butt; stroke-dashoffset: 0; stroke-linejoin: miter; stroke-miterlimit: 4; fill: rgb(224,171,54); fill-rule: nonzero; opacity: 1;" vector-effect="non-scaling-stroke"  transform=" translate(-49.25, -10.92)" d="M 48.865 13.209 L 51.107 9.955 C 51.112 9.948 51.112 9.94 51.117 9.933 C 50.656 9.472 50.163 9.045 49.651999999999994 8.635 C 49.583999999999996 8.692 49.51199999999999 8.744 49.459999999999994 8.821 L 47.37599999999999 11.846 C 47.908 12.282 48.401 12.738 48.865 13.209 z" stroke-linecap="round" />
</g>
		<g transform="matrix(14.33 0 0 14.33 361.66 -170.11)"  >
<path style="stroke: none; stroke-width: 1; stroke-dasharray: none; stroke-linecap: butt; stroke-dashoffset: 0; stroke-linejoin: miter; stroke-miterlimit: 4; fill: rgb(224,171,54); fill-rule: nonzero; opacity: 1;" vector-effect="non-scaling-stroke"  transform=" translate(-53.15, -16.04)" d="M 54.117 14.047 C 54.009 14.087 53.903999999999996 14.138 53.812 14.217 L 51.370999999999995 16.305 C 51.748 16.871 52.09799999999999 17.448 52.42399999999999 18.036 L 54.92099999999999 15.900000000000002 C 54.682 15.256 54.419 14.635 54.117 14.047 z" stroke-linecap="round" />
</g>
		<g transform="matrix(14.33 0 0 14.33 16.42 -200.19)"  >
<path style="stroke: none; stroke-width: 1; stroke-dasharray: none; stroke-linecap: butt; stroke-dashoffset: 0; stroke-linejoin: miter; stroke-miterlimit: 4; fill: rgb(136,192,87); fill-rule: nonzero; opacity: 1;" vector-effect="non-scaling-stroke"  transform=" translate(-29.06, -13.94)" d="M 32.636 17.426 C 32.134 17.426 31.642000000000003 17.287999999999997 31.213 17.022 C 30.605 16.645 30.192 16.058 30.05 15.368999999999998 C 29.984 15.047999999999998 29.632 14.848999999999998 29.26 14.922999999999998 C 28.571 15.068999999999999 27.863000000000003 14.943999999999999 27.271 14.575999999999999 C 26.663 14.198999999999998 26.25 13.611999999999998 26.108 12.922999999999998 C 26.067 12.725999999999999 25.928 12.612999999999998 25.849 12.564999999999998 C 25.695 12.468999999999998 25.507 12.434999999999997 25.319 12.477999999999998 C 24.775 12.584999999999997 24.249 12.241999999999997 24.137 11.701999999999998 C 24.025000000000002 11.160999999999998 24.372 10.631999999999998 24.913 10.518999999999998 C 25.602 10.373999999999999 26.311 10.497999999999998 26.903 10.865999999999998 C 27.511 11.241999999999997 27.924 11.829999999999998 28.067 12.518999999999998 C 28.108 12.715999999999998 28.246 12.828999999999999 28.325 12.876999999999999 C 28.477999999999998 12.972 28.666 13.004999999999999 28.855 12.963999999999999 C 30.305 12.672999999999998 31.718 13.562999999999999 32.008 14.964999999999998 C 32.049 15.161999999999997 32.187000000000005 15.274999999999999 32.266000000000005 15.322999999999999 C 32.419000000000004 15.418 32.607000000000006 15.450999999999999 32.79600000000001 15.409999999999998 C 33.339000000000006 15.298999999999998 33.86500000000001 15.645999999999999 33.97800000000001 16.186 C 34.09000000000001 16.727 33.74300000000001 17.256 33.202000000000005 17.369 C 33.014 17.408 32.824 17.426 32.636 17.426 z" stroke-linecap="round" />
</g>
		<g transform="matrix(14.33 0 0 14.33 -10.48 -15.13)"  >
<path style="stroke: none; stroke-width: 1; stroke-dasharray: none; stroke-linecap: butt; stroke-dashoffset: 0; stroke-linejoin: miter; stroke-miterlimit: 4; fill: rgb(101,156,53); fill-rule: nonzero; opacity: 1;" vector-effect="non-scaling-stroke"  transform=" translate(-27.18, -26.86)" d="M 25 30.284 C 24.458 30.284 24.013 29.849999999999998 24.001 29.305999999999997 C 23.988 28.714 24.21 28.134999999999998 24.612000000000002 27.714999999999996 C 25.000000000000004 27.310999999999996 25.517000000000003 27.080999999999996 26.069000000000003 27.068999999999996 C 26.115000000000002 27.067999999999994 26.182000000000002 26.991999999999994 26.179000000000002 26.875999999999994 C 26.167 26.302999999999994 26.367 25.756999999999994 26.743000000000002 25.337999999999994 C 27.136000000000003 24.899999999999995 27.67 24.651999999999994 28.248 24.640999999999995 C 28.294 24.639999999999993 28.361 24.563999999999993 28.358 24.447999999999993 C 28.346 23.895999999999994 28.784 23.43799999999999 29.337 23.426999999999992 C 29.344 23.426999999999992 29.352 23.426999999999992 29.358999999999998 23.426999999999992 C 29.901 23.426999999999992 30.346999999999998 23.860999999999994 30.358999999999998 24.40599999999999 C 30.384999999999998 25.612999999999992 29.456999999999997 26.615999999999993 28.290999999999997 26.641999999999992 C 28.215999999999998 26.642999999999994 28.177999999999997 26.75999999999999 28.179999999999996 26.833999999999993 C 28.205999999999996 28.040999999999993 27.277999999999995 29.043999999999993 26.111999999999995 29.069999999999993 C 26.038999999999994 29.11799999999999 25.997999999999994 29.170999999999992 25.999999999999996 29.260999999999992 C 26.012999999999998 29.813999999999993 25.574999999999996 30.270999999999994 25.022999999999996 30.28299999999999 C 25.015 30.284 25.008 30.284 25 30.284 z" stroke-linecap="round" />
</g>
		<g transform="matrix(14.33 0 0 14.33 -174.7 -75.65)"  >
<path style="stroke: none; stroke-width: 1; stroke-dasharray: none; stroke-linecap: butt; stroke-dashoffset: 0; stroke-linejoin: miter; stroke-miterlimit: 4; fill: rgb(101,156,53); fill-rule: nonzero; opacity: 1;" vector-effect="non-scaling-stroke"  transform=" translate(-15.72, -22.63)" d="M 11.443 25.426 C 11.309 25.426 11.171999999999999 25.398999999999997 11.041 25.340999999999998 C 10.535 25.118999999999996 10.306000000000001 24.528 10.528 24.023999999999997 C 10.813 23.377 11.322000000000001 22.871999999999996 11.964 22.602999999999998 C 12.622 22.326999999999998 13.34 22.331 13.986 22.613999999999997 C 14.172 22.694999999999997 14.342 22.647 14.428 22.610999999999997 C 14.595 22.541999999999998 14.729000000000001 22.406 14.806000000000001 22.229999999999997 C 15.403 20.875999999999998 16.952 20.240999999999996 18.264000000000003 20.819999999999997 C 18.563000000000002 20.950999999999997 18.933000000000003 20.779999999999998 19.085000000000004 20.434999999999995 C 19.308000000000003 19.929999999999996 19.901000000000003 19.702999999999996 20.403000000000006 19.922999999999995 C 20.908000000000005 20.145999999999994 21.138000000000005 20.735999999999994 20.915000000000006 21.240999999999996 C 20.320000000000007 22.593999999999998 18.770000000000007 23.227999999999994 17.458000000000006 22.648999999999997 C 17.157000000000007 22.514999999999997 16.789000000000005 22.688999999999997 16.637000000000004 23.034999999999997 C 16.353000000000005 23.680999999999997 15.843000000000004 24.185999999999996 15.201000000000004 24.455 C 14.543000000000005 24.729999999999997 13.825000000000005 24.726 13.180000000000003 24.442999999999998 C 12.995000000000003 24.363 12.824000000000003 24.409999999999997 12.738000000000003 24.445999999999998 C 12.571000000000003 24.516 12.437000000000003 24.651999999999997 12.360000000000003 24.828 C 12.194 25.204 11.828 25.426 11.443 25.426 z" stroke-linecap="round" />
</g>
		<g transform="matrix(14.33 0 0 14.33 -205.92 39.78)"  >
<path style="stroke: none; stroke-width: 1; stroke-dasharray: none; stroke-linecap: butt; stroke-dashoffset: 0; stroke-linejoin: miter; stroke-miterlimit: 4; fill: rgb(205,110,97); fill-rule: nonzero; opacity: 1;" vector-effect="non-scaling-stroke"  transform=" translate(-13.54, -30.69)" d="M 19.71 29.542 C 19.71 32.36 16.668 34.645 13.043000000000001 34.645 C 8.751000000000001 34.645 7.376000000000001 34.36000000000001 7.376000000000001 31.542 C 7.376000000000001 28.723999999999997 14.57 26.728 16.043 26.728 C 17.516 26.728 19.71 26.724 19.71 29.542 z" stroke-linecap="round" />
</g>
		<g transform="matrix(14.33 0 0 14.33 -172.69 -192.77)"  >
<path style="stroke: none; stroke-width: 1; stroke-dasharray: none; stroke-linecap: butt; stroke-dashoffset: 0; stroke-linejoin: miter; stroke-miterlimit: 4; fill: rgb(205,110,97); fill-rule: nonzero; opacity: 1;" vector-effect="non-scaling-stroke"  transform=" translate(-15.86, -14.46)" d="M 22.029 13.316 C 22.029 16.134 18.987000000000002 18.419 15.362 18.419 C 11.07 18.419 9.695 18.134 9.695 15.316 C 9.695 12.498000000000001 16.889 10.502 18.362000000000002 10.502 C 19.835000000000004 10.502 22.029 10.498 22.029 13.316 z" stroke-linecap="round" />
</g>
		<g transform="matrix(14.33 0 0 14.33 146.96 -121.7)"  >
<path style="stroke: none; stroke-width: 1; stroke-dasharray: none; stroke-linecap: butt; stroke-dashoffset: 0; stroke-linejoin: miter; stroke-miterlimit: 4; fill: rgb(205,110,97); fill-rule: nonzero; opacity: 1;" vector-effect="non-scaling-stroke"  transform=" translate(-38.17, -19.42)" d="M 44.333 18.275 C 44.333 21.093 41.291 23.378 37.666 23.378 C 33.373999999999995 23.378 31.998999999999995 23.093 31.998999999999995 20.275 C 31.998999999999995 17.456999999999997 39.193 15.460999999999999 40.666 15.460999999999999 C 42.138999999999996 15.460999999999999 44.333 15.456 44.333 18.275 z" stroke-linecap="round" />
</g>
		<g transform="matrix(14.33 0 0 14.33 108.78 -105.48)"  >
<circle style="stroke: none; stroke-width: 1; stroke-dasharray: none; stroke-linecap: butt; stroke-dashoffset: 0; stroke-linejoin: miter; stroke-miterlimit: 4; fill: rgb(215,156,140); fill-rule: nonzero; opacity: 1;" vector-effect="non-scaling-stroke"  cx="0" cy="0" r="1" />
</g>
		<g transform="matrix(14.33 0 0 14.33 183.57 -143.43)"  >
<circle style="stroke: none; stroke-width: 1; stroke-dasharray: none; stroke-linecap: butt; stroke-dashoffset: 0; stroke-linejoin: miter; stroke-miterlimit: 4; fill: rgb(215,156,140); fill-rule: nonzero; opacity: 1;" vector-effect="non-scaling-stroke"  cx="0" cy="0" r="1" />
</g>
		<g transform="matrix(14.33 0 0 14.33 164.76 -107.37)"  >
<circle style="stroke: none; stroke-width: 1; stroke-dasharray: none; stroke-linecap: butt; stroke-dashoffset: 0; stroke-linejoin: miter; stroke-miterlimit: 4; fill: rgb(215,156,140); fill-rule: nonzero; opacity: 1;" vector-effect="non-scaling-stroke"  cx="0" cy="0" r="1" />
</g>
		<g transform="matrix(14.33 0 0 14.33 -210.07 -173.78)"  >
<circle style="stroke: none; stroke-width: 1; stroke-dasharray: none; stroke-linecap: butt; stroke-dashoffset: 0; stroke-linejoin: miter; stroke-miterlimit: 4; fill: rgb(215,156,140); fill-rule: nonzero; opacity: 1;" vector-effect="non-scaling-stroke"  cx="0" cy="0" r="1" />
</g>
		<g transform="matrix(14.33 0 0 14.33 -126.49 -192.76)"  >
<circle style="stroke: none; stroke-width: 1; stroke-dasharray: none; stroke-linecap: butt; stroke-dashoffset: 0; stroke-linejoin: miter; stroke-miterlimit: 4; fill: rgb(215,156,140); fill-rule: nonzero; opacity: 1;" vector-effect="non-scaling-stroke"  cx="0" cy="0" r="1" />
</g>
		<g transform="matrix(14.33 0 0 14.33 -172.68 -207.09)"  >
<circle style="stroke: none; stroke-width: 1; stroke-dasharray: none; stroke-linecap: butt; stroke-dashoffset: 0; stroke-linejoin: miter; stroke-miterlimit: 4; fill: rgb(215,156,140); fill-rule: nonzero; opacity: 1;" vector-effect="non-scaling-stroke"  cx="0" cy="0" r="1" />
</g>
		<g transform="matrix(14.33 0 0 14.33 -242.32 56.42)"  >
<circle style="stroke: none; stroke-width: 1; stroke-dasharray: none; stroke-linecap: butt; stroke-dashoffset: 0; stroke-linejoin: miter; stroke-miterlimit: 4; fill: rgb(215,156,140); fill-rule: nonzero; opacity: 1;" vector-effect="non-scaling-stroke"  cx="0" cy="0" r="1" />
</g>
		<g transform="matrix(14.33 0 0 14.33 -195.74 23.13)"  >
<circle style="stroke: none; stroke-width: 1; stroke-dasharray: none; stroke-linecap: butt; stroke-dashoffset: 0; stroke-linejoin: miter; stroke-miterlimit: 4; fill: rgb(215,156,140); fill-rule: nonzero; opacity: 1;" vector-effect="non-scaling-stroke"  cx="0" cy="0" r="1" />
</g>
		<g transform="matrix(14.33 0 0 14.33 -172.68 51.79)"  >
<circle style="stroke: none; stroke-width: 1; stroke-dasharray: none; stroke-linecap: butt; stroke-dashoffset: 0; stroke-linejoin: miter; stroke-miterlimit: 4; fill: rgb(215,156,140); fill-rule: nonzero; opacity: 1;" vector-effect="non-scaling-stroke"  cx="0" cy="0" r="1" />
</g>
</g>
</g>
<g transform="matrix(0.43 0 0 0.43 92.71 64)" style="" id="ef390210-83b9-451f-a63f-740fd4805164"  >
		<text xml:space="preserve" font-family="Lato" font-size="40" font-style="normal" font-weight="700" style="stroke: none; stroke-width: 1; stroke-dasharray: none; stroke-linecap: butt; stroke-dashoffset: 0; stroke-linejoin: miter; stroke-miterlimit: 4; fill: rgb(255,255,255); fill-rule: nonzero; opacity: 1; white-space: pre;" ><tspan x="-31.86" y="-21.33" >MY</tspan><tspan x="-56.42" y="46.47" >PIZZA</tspan></text>
</g>
</svg>